Coordinates
version=1
nRows=13
nColumns=36
inDegrees=yes

Units are S.I. units (second, meters, Newtons, ...)
If the header above contains a line with 'inDegrees', this indicates whether rotational values are in degrees (yes) or radians (no).

endheader
time	pelvis_tilt	pelvis_list	pelvis_rotation	pelvis_tx	pelvis_ty	pelvis_tz	hip_flexion_r	hip_adduction_r	hip_rotation_r	knee_angle_r	knee_angle_r_beta	ankle_angle_r	subtalar_angle_r	mtp_angle_r	hip_flexion_l	hip_adduction_l	hip_rotation_l	knee_angle_l	knee_angle_l_beta	ankle_angle_l	subtalar_angle_l	mtp_angle_l	lumbar_extension	lumbar_bending	lumbar_rotation	arm_flex_r	arm_add_r	arm_rot_r	elbow_flex_r	pro_sup_r	arm_flex_l	arm_add_l	arm_rot_l	elbow_flex_l	pro_sup_l
      1.98333330	      5.85550358	      1.89190178	      3.06419672	     -0.12102304	      0.64219637	     -0.02560060	     74.83429515	     -9.35400233	      2.14516777	     89.29563936	      1.55850291	      6.12462222	    -15.34962967	     -7.50048114	     74.65189253	     -7.07264987	      2.92920362	     90.03045892	      1.57132794	     12.08016350	     -1.32340688	     -7.50048114	    -52.74741026	      0.98158659	      1.48682147	     18.74101940	    -13.28878269	     38.97042442	     95.22888741	     90.88056073	     14.87080976	    -10.21222710	     32.97469304	     97.24761899	     78.54863426
      2.00000000	      4.24559510	      2.07177490	      3.75555837	     -0.11960363	      0.64073716	     -0.02555220	     76.13982504	     -9.99119827	      2.25481501	     89.29493850	      1.55849068	      6.72036571	    -15.45859473	     -7.50046195	     76.04698425	     -6.54930151	      2.76170327	     90.16648152	      1.57370198	     12.40485627	     -1.65511726	     -7.50046195	    -52.72113165	      1.14706920	      1.11374965	     18.38565462	    -13.66580095	     39.14205643	     96.20717755	     90.64832408	     15.07510710	    -10.71094999	     33.37241105	     98.41996804	     78.55465744
      2.01666670	      2.58778937	      1.98596610	      4.38920961	     -0.11050706	      0.63945377	     -0.02419391	     77.45923543	    -10.41890019	      2.08432883	     89.45198874	      1.56123173	      7.57301219	    -15.39013730	     -7.50045508	     77.53526247	     -6.18011683	      3.07154976	     90.46795421	      1.57896367	     12.67527867	     -1.94758525	     -7.50045508	    -52.45026400	      1.35664590	      0.71078618	     17.90108950	    -13.69530582	     39.32644302	     96.61436216	     90.87487911	     15.82326021	    -11.35410023	     34.52625662	     99.25266073	     78.63806001
      2.03333330	      0.67811923	      1.80680394	      4.90526920	     -0.10789813	      0.64287193	     -0.02446412	     78.60564596	    -10.61232921	      1.97416744	     89.13295492	      1.55566354	      7.84864878	    -15.36569491	     -7.50044532	     78.77927309	     -5.75853083	      3.34531514	     90.07497509	      1.57210489	     13.20524692	     -1.53365730	     -7.50044532	    -52.21408241	      1.63778375	      0.21483410	     17.43759978	    -13.63300254	     39.19810114	     97.12895077	     90.53302423	     16.53151251	    -12.11605937	     35.50571890	    100.01805842	     78.15645868
      2.05000000	     -1.18166220	      1.60216144	      5.10661080	     -0.09900582	      0.64358781	     -0.02820569	     79.79851982	    -10.76216428	      1.79305564	     89.23943795	      1.55752201	      8.79586263	    -15.15028134	     -7.50043977	     79.90454318	     -5.49661173	      3.37266658	     89.34949660	      1.55944290	     13.17248454	     -1.26034421	     -7.50043977	    -51.88828564	      1.92165745	     -0.13234634	     17.06211271	    -13.68523924	     38.96297869	     98.24533694	     90.78533611	     16.69007513	    -12.54321281	     36.39990048	    100.59751522	     78.24474803
      2.06666670	     -3.15067609	      1.50737910	      5.22074708	     -0.09623773	      0.65140194	     -0.02754807	     80.57156851	    -10.77090040	      1.82542709	     88.34322677	      1.54188018	      9.63403145	    -14.65215652	     -7.50043189	     80.59773333	     -5.22381093	      3.09995009	     87.88260310	      1.53384078	     13.07090004	     -1.02554477	     -7.50043189	    -51.85680825	      2.09756429	     -0.23081286	     17.06106049	    -13.74977788	     38.47610069	     99.04849119	     91.02718070	     16.85138054	    -12.71712176	     36.88534415	    100.85440668	     78.26739473
      2.08333330	     -4.95833723	      1.32445590	      5.45223431	     -0.09307738	      0.65471259	     -0.02802023	     81.23693592	    -10.86430201	      1.75678659	     87.39344576	      1.52530337	     10.54075409	    -14.33213674	     -7.50041965	     81.40644517	     -4.81927322	      3.12676993	     86.67377167	      1.51274269	     12.71181944	     -1.49524777	     -7.50041965	    -51.82171649	      2.38130485	     -0.21539299	     17.42718409	    -13.89223044	     38.30690627	     99.55335114	     90.73987010	     16.93147035	    -12.77372541	     37.63452413	    100.49220324	     77.57901152
      2.10000000	     -6.53997884	      1.14605330	      5.66833575	     -0.08322581	      0.66096769	     -0.02514229	     81.31823848	    -10.82518715	      1.56799900	     86.24240072	      1.50521385	     11.78384135	    -13.49411693	     -7.50038721	     81.79426955	     -4.59682997	      3.14039427	     85.43488970	      1.49112012	     12.55325108	     -1.56776983	     -7.50038721	    -52.22018870	      2.44457377	      0.71485983	     16.70062182	    -14.17776406	     37.07131112	    100.45165589	     92.51452441	     17.94350501	    -12.37604980	     39.25607483	     99.77756009	     77.98189814
      2.11666670	     -8.04063044	      0.77361301	      5.65495019	     -0.06813306	      0.66414072	     -0.02621742	     81.26313028	    -10.56614118	      1.27569846	     85.73757426	      1.49640296	     13.20977793	    -13.26512961	     -7.50038145	     82.12851188	     -4.55839161	      3.63516490	     84.79262982	      1.47991057	     13.06257859	     -1.60666717	     -7.50038145	    -52.22863226	      2.56205703	      1.02757498	     16.69205109	    -14.44180506	     37.60556566	    100.05271719	     92.76947386	     17.64851851	    -12.10973719	     39.68868917	     99.29852014	     78.01080311
      2.13333330	     -9.33583909	      0.43539769	      5.28449833	     -0.03708042	      0.66189184	     -0.03561533	     80.79315542	    -10.63922712	      1.05391628	     86.04375695	      1.50174686	     15.97274587	    -12.11545304	     -7.50037189	     82.36387129	     -4.79864466	      3.94351968	     85.50176368	      1.49228729	     14.95708584	     -1.03417759	     -7.50037189	    -51.35834175	      2.70522951	      1.37116876	     15.76416795	    -14.59796632	     38.06678050	     98.71292662	     92.99769422	     16.17667321	    -11.20831315	     39.71009548	     97.84550860	     77.96757360
      2.15000000	    -10.36555378	      0.35182293	      4.68462890	     -0.03365578	      0.66348596	     -0.03837429	     80.40669382	    -10.68865894	      1.12710865	     86.05911223	      1.50201486	     18.03918224	    -10.99597359	     -7.50036625	     82.36327521	     -4.85426890	      4.00455792	     86.06351305	      1.50209167	     17.07639063	     -0.93566361	     -7.50036625	    -50.75113746	      2.62056175	      1.62159771	     14.85644176	    -14.81493970	     38.51034742	     97.60406459	     93.22675426	     15.01813998	    -10.51088192	     39.70462513	     97.18245567	     77.98281818
      2.16666670	    -11.29196417	      0.15690690	      4.10402681	     -0.02909240	      0.66471143	     -0.03511443	     80.59693836	    -10.65244353	      0.72023626	     86.20391858	      1.50454221	     19.30161102	    -10.76521167	     -7.50035925	     82.54971266	     -4.91559096	      4.43008504	     86.45602061	      1.50894222	     18.52145827	     -1.13966410	     -7.50035925	    -49.99348153	      2.56497981	      1.72200276	     14.39880598	    -14.94720312	     39.54669572	     96.43670752	     93.51787182	     14.54454926	    -10.35414696	     40.15123137	     96.27038634	     78.00498821
      2.18333330	    -12.15887492	      0.03757118	      3.31668859	     -0.01857855	      0.66394490	     -0.03554469	     80.73292500	    -10.32319847	      0.43380788	     86.39280030	      1.50783882	     20.71280089	    -10.48613586	     -7.50035197	     82.78729148	     -5.18666861	      4.88176276	     87.10964495	      1.52035011	     19.98640509	     -1.28166715	     -7.50035197	    -48.95760842	      2.39787973	      1.87108087	     14.08597870	    -14.97733262	     40.49725377	     95.35120846	     93.78211777	     13.86968102	    -10.14604589	     40.43102847	     95.29228568	     77.96276975
